<?xml version="1.0" encoding="UTF-8"?>
<svg width="20px" height="20px" viewBox="0 0 20 20" version="1.1" xmlns="http://www.w3.org/2000/svg" xmlns:xlink="http://www.w3.org/1999/xlink">
    <!-- Generator: Sketch 62 (91390) - https://sketch.com -->
    <title>选中</title>
    <desc>Created with Sketch.</desc>
    <g id="缴费" stroke="none" stroke-width="1" fill="none" fill-rule="evenodd">
        <g id="1订单页无优惠券备份-4" transform="translate(-326.000000, -543.000000)" fill="#0099FF">
            <g id="Icons/Complete" transform="translate(326.000000, 543.000000)">
                <path d="M20,10.1234568 C20,4.47703704 15.522963,0 9.87654321,0 C4.47703704,0 0,4.47703704 0,10.1234568 C0,15.522963 4.47703704,20 9.87654321,20 C15.522963,20 20,15.522963 20,10.1234568 Z M5.91101905,11.4119632 C5.52793902,11.0154943 5.47957728,10.3373414 5.79593069,9.90688539 L5.2173913,10.6940928 C5.53690979,10.2593302 6.14530861,10.1746635 6.58961462,10.5151986 L7.85152891,11.4823835 C8.28986844,11.8183456 8.98590203,11.8068751 9.41204144,11.4518665 L14.5631585,7.16056938 C14.9866662,6.80775317 15.6463405,6.83416872 15.9085265,7.09310272 L15.3299871,6.52173913 C15.6495056,6.83729453 15.5964218,7.40026032 15.1988439,7.79153639 L9.35468249,13.5430641 C8.96273562,13.9287984 8.32868251,13.914125 7.95137216,13.5236275 L5.91101905,11.4119632 Z" id="Combined-Shape"></path>
            </g>
        </g>
    </g>
</svg>